<svg id="search" xmlns="http://www.w3.org/2000/svg" width="17.001" height="17" viewBox="0 0 17.001 17">
  <path id="Path_6" data-name="Path 6" d="M23.148,23.147a1.063,1.063,0,0,1,1.5,0l4.09,4.09a1.063,1.063,0,0,1-1.5,1.5l-4.09-4.09a1.063,1.063,0,0,1,0-1.5Z" transform="translate(-12.053 -12.052)" fill="#fcae63" fill-rule="evenodd"/>
  <path id="Path_7" data-name="Path 7" d="M6.906,12.75A5.844,5.844,0,1,0,1.063,6.906,5.844,5.844,0,0,0,6.906,12.75Zm6.906-5.844A6.906,6.906,0,1,1,6.906,0a6.906,6.906,0,0,1,6.906,6.906Z" fill="#fcae63" fill-rule="evenodd"/>
</svg>
