<svg xmlns="http://www.w3.org/2000/svg" width="24.9" height="24.9" viewBox="0 0 24.9 24.9">
  <g id="x" transform="translate(-8.998 -8.998)">
    <path id="Path_13" data-name="Path 13" d="M33.441,9.456a1.556,1.556,0,0,1,0,2.2L11.658,33.442a1.558,1.558,0,0,1-2.2-2.2L31.238,9.456a1.556,1.556,0,0,1,2.2,0Z" transform="translate(0)" fill="#fff" fill-rule="evenodd"/>
    <path id="Path_14" data-name="Path 14" d="M9.456,9.456a1.556,1.556,0,0,0,0,2.2L31.239,33.442a1.558,1.558,0,0,0,2.2-2.2L11.659,9.456a1.556,1.556,0,0,0-2.2,0Z" transform="translate(0)" fill="#fff" fill-rule="evenodd"/>
  </g>
</svg>
