<svg xmlns="http://www.w3.org/2000/svg" width="32.973" height="20.25" viewBox="0 0 32.973 20.25">
  <g id="list-nested" transform="translate(-26.125 -3.75)">
    <path id="Path_5" data-name="Path 5" d="M25.305,25.875a1.112,1.112,0,0,0-1.1-1.125H2.224a1.125,1.125,0,0,0,0,2.25H24.206A1.112,1.112,0,0,0,25.305,25.875Zm4.4-9a1.112,1.112,0,0,0-1.1-1.125H6.62a1.125,1.125,0,0,0,0,2.25H28.6A1.112,1.112,0,0,0,29.7,16.875Zm4.4-9A1.112,1.112,0,0,0,33,6.75H11.017a1.125,1.125,0,0,0,0,2.25H33A1.112,1.112,0,0,0,34.1,7.875Z" transform="translate(25 -3)" fill-rule="evenodd"/>
  </g>
</svg>
